<?xml version="1.0" encoding="UTF-8"?>
<svg xmlns="http://www.w3.org/2000/svg" xmlns:xlink="http://www.w3.org/1999/xlink" width="498pt" height="116pt" viewBox="0 0 498 116" version="1.1">
<g id="surface1">
<path style=" stroke:none;fill-rule:nonzero;fill:rgb(92.89856%,10.998535%,14.099121%);fill-opacity:1;" d="M 210 35.332031 L 240 35.332031 L 240 0 L 210 0 Z M 210 35.332031 "/>
<path style=" stroke:none;fill-rule:nonzero;fill:rgb(17.999268%,18.798828%,57.299805%);fill-opacity:1;" d="M 154 42 L 154 0 L 124 0 L 124 116 L 154 116 L 154 72 L 210 72 L 210 116 L 240 116 L 240 42 L 210 42 "/>
<path style=" stroke:none;fill-rule:nonzero;fill:rgb(17.999268%,18.798828%,57.299805%);fill-opacity:1;" d="M 454 0 L 382.664063 0 L 382.664063 26 L 424 26 L 424 116 L 454 116 L 454 26 L 498 26 L 498 0 "/>
<path style=" stroke:none;fill-rule:nonzero;fill:rgb(17.999268%,18.798828%,57.299805%);fill-opacity:1;" d="M 344.667969 62.492188 L 288.667969 0.144531 L 288.667969 0 L 258.667969 0 L 258.667969 116 L 288.667969 116 L 288.667969 53.636719 L 344.667969 115.988281 L 344.667969 116 L 374.667969 116 L 374.667969 0 L 344.667969 0 "/>
<path style=" stroke:none;fill-rule:nonzero;fill:rgb(17.999268%,18.798828%,57.299805%);fill-opacity:1;" d="M 82.652344 0 L 34.015625 0 C 15.308594 0 0 15.308594 0 34.015625 L 0 81.984375 C 0 100.691406 15.308594 116 34.015625 116 L 82.652344 116 C 101.359375 116 116.667969 100.691406 116.667969 81.984375 L 116.667969 74.894531 L 91.332031 74.894531 L 91.332031 82.164063 C 91.332031 86.839844 87.507813 90.667969 82.828125 90.667969 L 38.503906 90.667969 C 33.828125 90.667969 30 86.839844 30 82.164063 L 30 34.503906 C 30 29.828125 33.828125 26 38.503906 26 L 82.828125 26 C 87.507813 26 91.332031 29.828125 91.332031 34.503906 L 91.332031 41.769531 L 116.667969 41.769531 L 116.667969 34.015625 C 116.667969 15.308594 101.359375 0 82.652344 0 "/>
</g>
</svg>
